<mxfile host="app.diagrams.net" modified="2021-10-08T06:57:59.282Z" agent="5.0 (Windows)" etag="fscf0DrZq3lrKXoJkAFl" version="15.4.1" type="github">
  <diagram id="IE8Z-qsfLLrDWqmMsq_n" name="Page-1">
    <mxGraphModel dx="1038" dy="536" grid="1" gridSize="10" guides="1" tooltips="1" connect="1" arrows="1" fold="1" page="1" pageScale="1" pageWidth="827" pageHeight="1169" math="0" shadow="0">
      <root>
        <mxCell id="0" />
        <mxCell id="1" parent="0" />
        <mxCell id="9GpPQzfEnyfRpi2PW7p6-1" value="" style="rounded=0;whiteSpace=wrap;html=1;" vertex="1" parent="1">
          <mxGeometry x="200" y="220" width="590" height="450" as="geometry" />
        </mxCell>
        <mxCell id="9GpPQzfEnyfRpi2PW7p6-2" value="Hệ thống quản lý đào tạo" style="text;html=1;strokeColor=none;fillColor=none;align=center;verticalAlign=middle;whiteSpace=wrap;rounded=0;" vertex="1" parent="1">
          <mxGeometry x="424" y="230" width="146" height="30" as="geometry" />
        </mxCell>
        <mxCell id="9GpPQzfEnyfRpi2PW7p6-3" value="Đăng nhập" style="ellipse;whiteSpace=wrap;html=1;" vertex="1" parent="1">
          <mxGeometry x="450" y="390" width="120" height="80" as="geometry" />
        </mxCell>
        <mxCell id="9GpPQzfEnyfRpi2PW7p6-4" value="Quản lý nhân viên" style="ellipse;whiteSpace=wrap;html=1;" vertex="1" parent="1">
          <mxGeometry x="240" y="270" width="120" height="80" as="geometry" />
        </mxCell>
        <mxCell id="9GpPQzfEnyfRpi2PW7p6-5" value="Quản lý chuyên đề" style="ellipse;whiteSpace=wrap;html=1;" vertex="1" parent="1">
          <mxGeometry x="240" y="370" width="120" height="80" as="geometry" />
        </mxCell>
        <mxCell id="9GpPQzfEnyfRpi2PW7p6-6" value="Quản lý người học&lt;span style=&quot;white-space: pre&quot;&gt;&lt;/span&gt;" style="ellipse;whiteSpace=wrap;html=1;" vertex="1" parent="1">
          <mxGeometry x="240" y="460" width="120" height="80" as="geometry" />
        </mxCell>
        <mxCell id="9GpPQzfEnyfRpi2PW7p6-7" value="Quản lý học viên" style="ellipse;whiteSpace=wrap;html=1;" vertex="1" parent="1">
          <mxGeometry x="240" y="560" width="120" height="80" as="geometry" />
        </mxCell>
        <mxCell id="9GpPQzfEnyfRpi2PW7p6-8" value="Đổi mật khẩu&lt;span style=&quot;white-space: pre&quot;&gt;	&lt;/span&gt;" style="ellipse;whiteSpace=wrap;html=1;" vertex="1" parent="1">
          <mxGeometry x="640" y="320" width="120" height="80" as="geometry" />
        </mxCell>
        <mxCell id="9GpPQzfEnyfRpi2PW7p6-9" value="Tổng hợp thống kê" style="ellipse;whiteSpace=wrap;html=1;" vertex="1" parent="1">
          <mxGeometry x="640" y="410" width="120" height="80" as="geometry" />
        </mxCell>
        <mxCell id="9GpPQzfEnyfRpi2PW7p6-10" value="Quản lý khóa học" style="ellipse;whiteSpace=wrap;html=1;" vertex="1" parent="1">
          <mxGeometry x="640" y="510" width="120" height="80" as="geometry" />
        </mxCell>
        <mxCell id="9GpPQzfEnyfRpi2PW7p6-11" value="" style="endArrow=open;endFill=1;endSize=12;html=1;rounded=0;edgeStyle=orthogonalEdgeStyle;entryX=0.192;entryY=0.075;entryDx=0;entryDy=0;entryPerimeter=0;dashed=1;" edge="1" parent="1" source="9GpPQzfEnyfRpi2PW7p6-4" target="9GpPQzfEnyfRpi2PW7p6-3">
          <mxGeometry width="160" relative="1" as="geometry">
            <mxPoint x="340" y="450" as="sourcePoint" />
            <mxPoint x="500" y="450" as="targetPoint" />
          </mxGeometry>
        </mxCell>
        <mxCell id="9GpPQzfEnyfRpi2PW7p6-12" value="&lt;div&gt;user&lt;/div&gt;" style="edgeLabel;html=1;align=center;verticalAlign=middle;resizable=0;points=[];" vertex="1" connectable="0" parent="9GpPQzfEnyfRpi2PW7p6-11">
          <mxGeometry x="-0.0653" y="-2" relative="1" as="geometry">
            <mxPoint as="offset" />
          </mxGeometry>
        </mxCell>
        <mxCell id="9GpPQzfEnyfRpi2PW7p6-13" value="" style="endArrow=open;endFill=1;endSize=12;html=1;rounded=0;edgeStyle=orthogonalEdgeStyle;entryX=0.017;entryY=0.35;entryDx=0;entryDy=0;entryPerimeter=0;dashed=1;exitX=0.975;exitY=0.375;exitDx=0;exitDy=0;exitPerimeter=0;" edge="1" parent="1" source="9GpPQzfEnyfRpi2PW7p6-5" target="9GpPQzfEnyfRpi2PW7p6-3">
          <mxGeometry width="160" relative="1" as="geometry">
            <mxPoint x="357" y="407" as="sourcePoint" />
            <mxPoint x="470.03999999999996" y="493" as="targetPoint" />
          </mxGeometry>
        </mxCell>
        <mxCell id="9GpPQzfEnyfRpi2PW7p6-14" value="user" style="edgeLabel;html=1;align=center;verticalAlign=middle;resizable=0;points=[];" vertex="1" connectable="0" parent="9GpPQzfEnyfRpi2PW7p6-13">
          <mxGeometry x="-0.0653" y="-2" relative="1" as="geometry">
            <mxPoint as="offset" />
          </mxGeometry>
        </mxCell>
        <mxCell id="9GpPQzfEnyfRpi2PW7p6-15" value="" style="endArrow=open;endFill=1;endSize=12;html=1;rounded=0;edgeStyle=orthogonalEdgeStyle;entryX=0;entryY=1;entryDx=0;entryDy=0;dashed=1;exitX=1;exitY=0.5;exitDx=0;exitDy=0;" edge="1" parent="1" source="9GpPQzfEnyfRpi2PW7p6-6" target="9GpPQzfEnyfRpi2PW7p6-3">
          <mxGeometry width="160" relative="1" as="geometry">
            <mxPoint x="380" y="330" as="sourcePoint" />
            <mxPoint x="493.03999999999996" y="416" as="targetPoint" />
          </mxGeometry>
        </mxCell>
        <mxCell id="9GpPQzfEnyfRpi2PW7p6-16" value="user" style="edgeLabel;html=1;align=center;verticalAlign=middle;resizable=0;points=[];" vertex="1" connectable="0" parent="9GpPQzfEnyfRpi2PW7p6-15">
          <mxGeometry x="-0.0653" y="-2" relative="1" as="geometry">
            <mxPoint as="offset" />
          </mxGeometry>
        </mxCell>
        <mxCell id="9GpPQzfEnyfRpi2PW7p6-17" value="" style="endArrow=open;endFill=1;endSize=12;html=1;rounded=0;edgeStyle=orthogonalEdgeStyle;dashed=1;exitX=1;exitY=0.5;exitDx=0;exitDy=0;" edge="1" parent="1" source="9GpPQzfEnyfRpi2PW7p6-7">
          <mxGeometry width="160" relative="1" as="geometry">
            <mxPoint x="390" y="340" as="sourcePoint" />
            <mxPoint x="503" y="470" as="targetPoint" />
          </mxGeometry>
        </mxCell>
        <mxCell id="9GpPQzfEnyfRpi2PW7p6-18" value="user" style="edgeLabel;html=1;align=center;verticalAlign=middle;resizable=0;points=[];" vertex="1" connectable="0" parent="9GpPQzfEnyfRpi2PW7p6-17">
          <mxGeometry x="-0.0653" y="-2" relative="1" as="geometry">
            <mxPoint as="offset" />
          </mxGeometry>
        </mxCell>
        <mxCell id="9GpPQzfEnyfRpi2PW7p6-19" value="" style="endArrow=open;endFill=1;endSize=12;html=1;rounded=0;edgeStyle=orthogonalEdgeStyle;entryX=0.675;entryY=1.025;entryDx=0;entryDy=0;entryPerimeter=0;dashed=1;exitX=0;exitY=0.5;exitDx=0;exitDy=0;" edge="1" parent="1" source="9GpPQzfEnyfRpi2PW7p6-10" target="9GpPQzfEnyfRpi2PW7p6-3">
          <mxGeometry width="160" relative="1" as="geometry">
            <mxPoint x="400" y="350" as="sourcePoint" />
            <mxPoint x="513.04" y="436" as="targetPoint" />
          </mxGeometry>
        </mxCell>
        <mxCell id="9GpPQzfEnyfRpi2PW7p6-20" value="user" style="edgeLabel;html=1;align=center;verticalAlign=middle;resizable=0;points=[];" vertex="1" connectable="0" parent="9GpPQzfEnyfRpi2PW7p6-19">
          <mxGeometry x="-0.0653" y="-2" relative="1" as="geometry">
            <mxPoint as="offset" />
          </mxGeometry>
        </mxCell>
        <mxCell id="9GpPQzfEnyfRpi2PW7p6-21" value="" style="endArrow=open;endFill=1;endSize=12;html=1;rounded=0;edgeStyle=orthogonalEdgeStyle;entryX=1;entryY=0.5;entryDx=0;entryDy=0;dashed=1;exitX=0;exitY=0.5;exitDx=0;exitDy=0;" edge="1" parent="1" source="9GpPQzfEnyfRpi2PW7p6-9" target="9GpPQzfEnyfRpi2PW7p6-3">
          <mxGeometry width="160" relative="1" as="geometry">
            <mxPoint x="410" y="360" as="sourcePoint" />
            <mxPoint x="523.04" y="446" as="targetPoint" />
          </mxGeometry>
        </mxCell>
        <mxCell id="9GpPQzfEnyfRpi2PW7p6-22" value="user" style="edgeLabel;html=1;align=center;verticalAlign=middle;resizable=0;points=[];" vertex="1" connectable="0" parent="9GpPQzfEnyfRpi2PW7p6-21">
          <mxGeometry x="-0.0653" y="-2" relative="1" as="geometry">
            <mxPoint as="offset" />
          </mxGeometry>
        </mxCell>
        <mxCell id="9GpPQzfEnyfRpi2PW7p6-23" value="" style="endArrow=open;endFill=1;endSize=12;html=1;rounded=0;edgeStyle=orthogonalEdgeStyle;entryX=0.675;entryY=0.013;entryDx=0;entryDy=0;entryPerimeter=0;dashed=1;exitX=0;exitY=0.5;exitDx=0;exitDy=0;" edge="1" parent="1" source="9GpPQzfEnyfRpi2PW7p6-8" target="9GpPQzfEnyfRpi2PW7p6-3">
          <mxGeometry width="160" relative="1" as="geometry">
            <mxPoint x="420" y="370" as="sourcePoint" />
            <mxPoint x="533.04" y="456" as="targetPoint" />
          </mxGeometry>
        </mxCell>
        <mxCell id="9GpPQzfEnyfRpi2PW7p6-24" value="user" style="edgeLabel;html=1;align=center;verticalAlign=middle;resizable=0;points=[];" vertex="1" connectable="0" parent="9GpPQzfEnyfRpi2PW7p6-23">
          <mxGeometry x="-0.0653" y="-2" relative="1" as="geometry">
            <mxPoint as="offset" />
          </mxGeometry>
        </mxCell>
        <mxCell id="9GpPQzfEnyfRpi2PW7p6-25" value="Nhân viên" style="shape=umlActor;verticalLabelPosition=bottom;verticalAlign=top;html=1;" vertex="1" parent="1">
          <mxGeometry x="40" y="250" width="50" height="80" as="geometry" />
        </mxCell>
        <mxCell id="9GpPQzfEnyfRpi2PW7p6-26" value="TRường phòng" style="shape=umlActor;verticalLabelPosition=bottom;verticalAlign=top;html=1;" vertex="1" parent="1">
          <mxGeometry x="40" y="500" width="50" height="80" as="geometry" />
        </mxCell>
        <mxCell id="9GpPQzfEnyfRpi2PW7p6-27" value="" style="endArrow=block;endFill=0;endSize=12;html=1;rounded=0;edgeStyle=orthogonalEdgeStyle;exitX=0.5;exitY=0;exitDx=0;exitDy=0;exitPerimeter=0;" edge="1" parent="1" source="9GpPQzfEnyfRpi2PW7p6-26" target="9GpPQzfEnyfRpi2PW7p6-25">
          <mxGeometry width="160" relative="1" as="geometry">
            <mxPoint x="340" y="450" as="sourcePoint" />
            <mxPoint x="500" y="450" as="targetPoint" />
          </mxGeometry>
        </mxCell>
        <mxCell id="9GpPQzfEnyfRpi2PW7p6-28" value="&lt;div&gt;&lt;br&gt;&lt;/div&gt;&lt;div&gt;&lt;br&gt;&lt;/div&gt;" style="endArrow=block;endFill=1;html=1;edgeStyle=orthogonalEdgeStyle;align=left;verticalAlign=top;rounded=0;entryX=0.002;entryY=0.713;entryDx=0;entryDy=0;entryPerimeter=0;" edge="1" parent="1" source="9GpPQzfEnyfRpi2PW7p6-26" target="9GpPQzfEnyfRpi2PW7p6-1">
          <mxGeometry x="-1" relative="1" as="geometry">
            <mxPoint x="340" y="450" as="sourcePoint" />
            <mxPoint x="500" y="450" as="targetPoint" />
          </mxGeometry>
        </mxCell>
        <mxCell id="9GpPQzfEnyfRpi2PW7p6-30" value="&lt;div&gt;&lt;br&gt;&lt;/div&gt;&lt;div&gt;&lt;br&gt;&lt;/div&gt;" style="endArrow=block;endFill=1;html=1;edgeStyle=orthogonalEdgeStyle;align=left;verticalAlign=top;rounded=0;" edge="1" parent="1" source="9GpPQzfEnyfRpi2PW7p6-25">
          <mxGeometry x="-1" relative="1" as="geometry">
            <mxPoint x="100" y="550" as="sourcePoint" />
            <mxPoint x="200" y="290" as="targetPoint" />
          </mxGeometry>
        </mxCell>
        <mxCell id="9GpPQzfEnyfRpi2PW7p6-32" value="" style="rounded=0;whiteSpace=wrap;html=1;" vertex="1" parent="1">
          <mxGeometry x="930" y="215" width="750" height="450" as="geometry" />
        </mxCell>
        <mxCell id="9GpPQzfEnyfRpi2PW7p6-33" value="Quản lý nhân viên" style="text;html=1;strokeColor=none;fillColor=none;align=center;verticalAlign=middle;whiteSpace=wrap;rounded=0;" vertex="1" parent="1">
          <mxGeometry x="1130" y="230" width="280" height="30" as="geometry" />
        </mxCell>
        <mxCell id="9GpPQzfEnyfRpi2PW7p6-34" value="Quản lý nhân viên" style="ellipse;whiteSpace=wrap;html=1;" vertex="1" parent="1">
          <mxGeometry x="1220" y="405" width="120" height="80" as="geometry" />
        </mxCell>
        <mxCell id="9GpPQzfEnyfRpi2PW7p6-35" value="Sửa " style="ellipse;whiteSpace=wrap;html=1;" vertex="1" parent="1">
          <mxGeometry x="1450" y="405" width="120" height="80" as="geometry" />
        </mxCell>
        <mxCell id="9GpPQzfEnyfRpi2PW7p6-36" value="chi tiết" style="ellipse;whiteSpace=wrap;html=1;" vertex="1" parent="1">
          <mxGeometry x="970" y="270" width="120" height="80" as="geometry" />
        </mxCell>
        <mxCell id="9GpPQzfEnyfRpi2PW7p6-37" value="Xem" style="ellipse;whiteSpace=wrap;html=1;" vertex="1" parent="1">
          <mxGeometry x="1220" y="270" width="120" height="80" as="geometry" />
        </mxCell>
        <mxCell id="9GpPQzfEnyfRpi2PW7p6-38" value="Thống kê" style="ellipse;whiteSpace=wrap;html=1;" vertex="1" parent="1">
          <mxGeometry x="1450" y="270" width="120" height="80" as="geometry" />
        </mxCell>
        <mxCell id="9GpPQzfEnyfRpi2PW7p6-39" value="Xóa" style="ellipse;whiteSpace=wrap;html=1;" vertex="1" parent="1">
          <mxGeometry x="1220" y="540" width="120" height="80" as="geometry" />
        </mxCell>
        <mxCell id="9GpPQzfEnyfRpi2PW7p6-40" value="Thêm" style="ellipse;whiteSpace=wrap;html=1;" vertex="1" parent="1">
          <mxGeometry x="970" y="405" width="120" height="80" as="geometry" />
        </mxCell>
        <mxCell id="9GpPQzfEnyfRpi2PW7p6-43" value="" style="whiteSpace=wrap;html=1;" vertex="1" parent="1">
          <mxGeometry x="1840" y="210" width="770" height="455" as="geometry" />
        </mxCell>
        <mxCell id="9GpPQzfEnyfRpi2PW7p6-44" value="&lt;div&gt;include&lt;/div&gt;" style="html=1;verticalAlign=bottom;endArrow=block;rounded=0;edgeStyle=orthogonalEdgeStyle;entryX=0;entryY=0.5;entryDx=0;entryDy=0;exitX=1;exitY=0.5;exitDx=0;exitDy=0;dashed=1;" edge="1" parent="1" source="9GpPQzfEnyfRpi2PW7p6-37" target="9GpPQzfEnyfRpi2PW7p6-38">
          <mxGeometry width="80" relative="1" as="geometry">
            <mxPoint x="1220" y="450" as="sourcePoint" />
            <mxPoint x="1300" y="450" as="targetPoint" />
          </mxGeometry>
        </mxCell>
        <mxCell id="9GpPQzfEnyfRpi2PW7p6-45" value="&lt;div&gt;include&lt;/div&gt;" style="html=1;verticalAlign=bottom;endArrow=block;rounded=0;edgeStyle=orthogonalEdgeStyle;entryX=0;entryY=0.5;entryDx=0;entryDy=0;exitX=1;exitY=0.5;exitDx=0;exitDy=0;dashed=1;" edge="1" parent="1">
          <mxGeometry width="80" relative="1" as="geometry">
            <mxPoint x="1340" y="444.5" as="sourcePoint" />
            <mxPoint x="1450" y="444.5" as="targetPoint" />
          </mxGeometry>
        </mxCell>
        <mxCell id="9GpPQzfEnyfRpi2PW7p6-46" value="&lt;div&gt;include&lt;/div&gt;" style="html=1;verticalAlign=bottom;endArrow=block;rounded=0;edgeStyle=orthogonalEdgeStyle;entryX=0.5;entryY=0;entryDx=0;entryDy=0;exitX=0.617;exitY=1.038;exitDx=0;exitDy=0;exitPerimeter=0;dashed=1;" edge="1" parent="1" source="9GpPQzfEnyfRpi2PW7p6-34" target="9GpPQzfEnyfRpi2PW7p6-39">
          <mxGeometry width="80" relative="1" as="geometry">
            <mxPoint x="1280" y="480" as="sourcePoint" />
            <mxPoint x="1470" y="330" as="targetPoint" />
          </mxGeometry>
        </mxCell>
        <mxCell id="9GpPQzfEnyfRpi2PW7p6-47" value="&lt;div&gt;include&lt;/div&gt;" style="html=1;verticalAlign=bottom;endArrow=block;rounded=0;edgeStyle=orthogonalEdgeStyle;entryX=1;entryY=0.5;entryDx=0;entryDy=0;exitX=0;exitY=0.5;exitDx=0;exitDy=0;dashed=1;" edge="1" parent="1" source="9GpPQzfEnyfRpi2PW7p6-34" target="9GpPQzfEnyfRpi2PW7p6-40">
          <mxGeometry width="80" relative="1" as="geometry">
            <mxPoint x="1370" y="340" as="sourcePoint" />
            <mxPoint x="1480" y="340" as="targetPoint" />
          </mxGeometry>
        </mxCell>
        <mxCell id="9GpPQzfEnyfRpi2PW7p6-48" value="&lt;div&gt;include&lt;/div&gt;" style="html=1;verticalAlign=bottom;endArrow=block;rounded=0;edgeStyle=orthogonalEdgeStyle;entryX=1;entryY=0.5;entryDx=0;entryDy=0;exitX=0;exitY=0.5;exitDx=0;exitDy=0;dashed=1;" edge="1" parent="1" source="9GpPQzfEnyfRpi2PW7p6-37" target="9GpPQzfEnyfRpi2PW7p6-36">
          <mxGeometry width="80" relative="1" as="geometry">
            <mxPoint x="1380" y="350" as="sourcePoint" />
            <mxPoint x="1490" y="350" as="targetPoint" />
          </mxGeometry>
        </mxCell>
        <mxCell id="9GpPQzfEnyfRpi2PW7p6-49" value="&lt;div&gt;include&lt;/div&gt;" style="html=1;verticalAlign=bottom;endArrow=block;rounded=0;edgeStyle=orthogonalEdgeStyle;entryX=0.5;entryY=1;entryDx=0;entryDy=0;exitX=0.5;exitY=0;exitDx=0;exitDy=0;" edge="1" parent="1" source="9GpPQzfEnyfRpi2PW7p6-34" target="9GpPQzfEnyfRpi2PW7p6-37">
          <mxGeometry width="80" relative="1" as="geometry">
            <mxPoint x="1390" y="360" as="sourcePoint" />
            <mxPoint x="1500" y="360" as="targetPoint" />
          </mxGeometry>
        </mxCell>
        <mxCell id="9GpPQzfEnyfRpi2PW7p6-51" style="edgeStyle=orthogonalEdgeStyle;rounded=0;orthogonalLoop=1;jettySize=auto;html=1;entryX=0;entryY=0.5;entryDx=0;entryDy=0;endArrow=none;endFill=0;" edge="1" parent="1" source="9GpPQzfEnyfRpi2PW7p6-50" target="9GpPQzfEnyfRpi2PW7p6-39">
          <mxGeometry relative="1" as="geometry" />
        </mxCell>
        <mxCell id="9GpPQzfEnyfRpi2PW7p6-50" value="&lt;div&gt;Trường phòng&lt;/div&gt;&lt;div&gt;&lt;br&gt;&lt;/div&gt;" style="shape=umlActor;verticalLabelPosition=bottom;verticalAlign=top;html=1;" vertex="1" parent="1">
          <mxGeometry x="860" y="550" width="30" height="60" as="geometry" />
        </mxCell>
        <mxCell id="9GpPQzfEnyfRpi2PW7p6-52" value="&lt;div&gt;Quản lý người học&lt;/div&gt;" style="text;html=1;strokeColor=none;fillColor=none;align=center;verticalAlign=middle;whiteSpace=wrap;rounded=0;" vertex="1" parent="1">
          <mxGeometry x="2120" y="220" width="245" height="30" as="geometry" />
        </mxCell>
        <mxCell id="9GpPQzfEnyfRpi2PW7p6-69" value="làm mới" style="ellipse;whiteSpace=wrap;html=1;" vertex="1" parent="1">
          <mxGeometry x="1870" y="570" width="120" height="80" as="geometry" />
        </mxCell>
        <mxCell id="9GpPQzfEnyfRpi2PW7p6-70" value="xóa" style="ellipse;whiteSpace=wrap;html=1;" vertex="1" parent="1">
          <mxGeometry x="1870" y="470" width="120" height="80" as="geometry" />
        </mxCell>
        <mxCell id="9GpPQzfEnyfRpi2PW7p6-71" value="sửa" style="ellipse;whiteSpace=wrap;html=1;" vertex="1" parent="1">
          <mxGeometry x="1870" y="360" width="120" height="80" as="geometry" />
        </mxCell>
        <mxCell id="9GpPQzfEnyfRpi2PW7p6-72" value="thêm" style="ellipse;whiteSpace=wrap;html=1;" vertex="1" parent="1">
          <mxGeometry x="1870" y="240" width="120" height="80" as="geometry" />
        </mxCell>
        <mxCell id="9GpPQzfEnyfRpi2PW7p6-77" value="incude" style="edgeStyle=orthogonalEdgeStyle;rounded=0;orthogonalLoop=1;jettySize=auto;html=1;entryX=1;entryY=0.5;entryDx=0;entryDy=0;endArrow=classic;endFill=1;dashed=1;" edge="1" parent="1" source="9GpPQzfEnyfRpi2PW7p6-73" target="9GpPQzfEnyfRpi2PW7p6-76">
          <mxGeometry relative="1" as="geometry">
            <Array as="points">
              <mxPoint x="2160" y="390" />
              <mxPoint x="2160" y="450" />
              <mxPoint x="2180" y="450" />
              <mxPoint x="2180" y="510" />
            </Array>
          </mxGeometry>
        </mxCell>
        <mxCell id="9GpPQzfEnyfRpi2PW7p6-78" style="edgeStyle=orthogonalEdgeStyle;rounded=0;orthogonalLoop=1;jettySize=auto;html=1;entryX=0;entryY=0.5;entryDx=0;entryDy=0;endArrow=classic;endFill=1;dashed=1;" edge="1" parent="1" source="9GpPQzfEnyfRpi2PW7p6-73" target="9GpPQzfEnyfRpi2PW7p6-75">
          <mxGeometry relative="1" as="geometry" />
        </mxCell>
        <mxCell id="9GpPQzfEnyfRpi2PW7p6-79" style="edgeStyle=orthogonalEdgeStyle;rounded=0;orthogonalLoop=1;jettySize=auto;html=1;entryX=0;entryY=0.5;entryDx=0;entryDy=0;endArrow=classic;endFill=1;dashed=1;" edge="1" parent="1" source="9GpPQzfEnyfRpi2PW7p6-73" target="9GpPQzfEnyfRpi2PW7p6-74">
          <mxGeometry relative="1" as="geometry" />
        </mxCell>
        <mxCell id="9GpPQzfEnyfRpi2PW7p6-85" value="&lt;div&gt;include&lt;/div&gt;" style="edgeLabel;html=1;align=center;verticalAlign=middle;resizable=0;points=[];" vertex="1" connectable="0" parent="9GpPQzfEnyfRpi2PW7p6-79">
          <mxGeometry x="-0.5932" relative="1" as="geometry">
            <mxPoint as="offset" />
          </mxGeometry>
        </mxCell>
        <mxCell id="9GpPQzfEnyfRpi2PW7p6-86" value="include" style="edgeLabel;html=1;align=center;verticalAlign=middle;resizable=0;points=[];" vertex="1" connectable="0" parent="9GpPQzfEnyfRpi2PW7p6-79">
          <mxGeometry x="0.1322" y="2" relative="1" as="geometry">
            <mxPoint as="offset" />
          </mxGeometry>
        </mxCell>
        <mxCell id="9GpPQzfEnyfRpi2PW7p6-73" value="Quản lý người học" style="ellipse;whiteSpace=wrap;html=1;" vertex="1" parent="1">
          <mxGeometry x="2180" y="350" width="120" height="80" as="geometry" />
        </mxCell>
        <mxCell id="9GpPQzfEnyfRpi2PW7p6-74" value="liệt kê người học" style="ellipse;whiteSpace=wrap;html=1;" vertex="1" parent="1">
          <mxGeometry x="2440" y="505" width="120" height="80" as="geometry" />
        </mxCell>
        <mxCell id="9GpPQzfEnyfRpi2PW7p6-75" value="tìm kiếm" style="ellipse;whiteSpace=wrap;html=1;" vertex="1" parent="1">
          <mxGeometry x="2430" y="250" width="120" height="80" as="geometry" />
        </mxCell>
        <mxCell id="9GpPQzfEnyfRpi2PW7p6-80" style="edgeStyle=orthogonalEdgeStyle;rounded=0;orthogonalLoop=1;jettySize=auto;html=1;entryX=1;entryY=0.5;entryDx=0;entryDy=0;endArrow=classic;endFill=1;startArrow=none;startFill=0;dashed=1;" edge="1" parent="1" source="9GpPQzfEnyfRpi2PW7p6-76" target="9GpPQzfEnyfRpi2PW7p6-72">
          <mxGeometry relative="1" as="geometry" />
        </mxCell>
        <mxCell id="9GpPQzfEnyfRpi2PW7p6-84" value="&lt;div&gt;&lt;br&gt;&lt;/div&gt;" style="edgeLabel;html=1;align=center;verticalAlign=middle;resizable=0;points=[];" vertex="1" connectable="0" parent="9GpPQzfEnyfRpi2PW7p6-80">
          <mxGeometry x="0.4429" y="-1" relative="1" as="geometry">
            <mxPoint as="offset" />
          </mxGeometry>
        </mxCell>
        <mxCell id="9GpPQzfEnyfRpi2PW7p6-87" value="&lt;div&gt;include&lt;/div&gt;" style="edgeLabel;html=1;align=center;verticalAlign=middle;resizable=0;points=[];" vertex="1" connectable="0" parent="9GpPQzfEnyfRpi2PW7p6-80">
          <mxGeometry x="0.3786" y="-3" relative="1" as="geometry">
            <mxPoint as="offset" />
          </mxGeometry>
        </mxCell>
        <mxCell id="9GpPQzfEnyfRpi2PW7p6-81" value="&lt;div&gt;include&lt;/div&gt;" style="edgeStyle=orthogonalEdgeStyle;rounded=0;orthogonalLoop=1;jettySize=auto;html=1;entryX=1;entryY=0.5;entryDx=0;entryDy=0;endArrow=classic;endFill=1;dashed=1;" edge="1" parent="1" source="9GpPQzfEnyfRpi2PW7p6-76" target="9GpPQzfEnyfRpi2PW7p6-71">
          <mxGeometry relative="1" as="geometry" />
        </mxCell>
        <mxCell id="9GpPQzfEnyfRpi2PW7p6-82" value="include" style="edgeStyle=orthogonalEdgeStyle;rounded=0;orthogonalLoop=1;jettySize=auto;html=1;endArrow=classic;endFill=1;dashed=1;" edge="1" parent="1" source="9GpPQzfEnyfRpi2PW7p6-76" target="9GpPQzfEnyfRpi2PW7p6-70">
          <mxGeometry relative="1" as="geometry" />
        </mxCell>
        <mxCell id="9GpPQzfEnyfRpi2PW7p6-83" value="&lt;div&gt;include&lt;/div&gt;" style="edgeStyle=orthogonalEdgeStyle;rounded=0;orthogonalLoop=1;jettySize=auto;html=1;entryX=1;entryY=0.5;entryDx=0;entryDy=0;endArrow=classic;endFill=1;dashed=1;" edge="1" parent="1" source="9GpPQzfEnyfRpi2PW7p6-76" target="9GpPQzfEnyfRpi2PW7p6-69">
          <mxGeometry relative="1" as="geometry" />
        </mxCell>
        <mxCell id="9GpPQzfEnyfRpi2PW7p6-76" value="Cập nhật" style="ellipse;whiteSpace=wrap;html=1;" vertex="1" parent="1">
          <mxGeometry x="2040" y="470" width="120" height="80" as="geometry" />
        </mxCell>
        <mxCell id="9GpPQzfEnyfRpi2PW7p6-90" style="edgeStyle=orthogonalEdgeStyle;rounded=0;orthogonalLoop=1;jettySize=auto;html=1;entryX=0;entryY=0.5;entryDx=0;entryDy=0;startArrow=none;startFill=0;endArrow=classic;endFill=1;" edge="1" parent="1" source="9GpPQzfEnyfRpi2PW7p6-89" target="9GpPQzfEnyfRpi2PW7p6-70">
          <mxGeometry relative="1" as="geometry" />
        </mxCell>
        <mxCell id="9GpPQzfEnyfRpi2PW7p6-89" value="trưởng phòng" style="shape=umlActor;verticalLabelPosition=bottom;verticalAlign=top;html=1;outlineConnect=0;" vertex="1" parent="1">
          <mxGeometry x="1750" y="480" width="30" height="60" as="geometry" />
        </mxCell>
        <mxCell id="9GpPQzfEnyfRpi2PW7p6-91" value="" style="rounded=0;whiteSpace=wrap;html=1;" vertex="1" parent="1">
          <mxGeometry x="1840" y="730" width="690" height="400" as="geometry" />
        </mxCell>
        <mxCell id="9GpPQzfEnyfRpi2PW7p6-92" value="Quản lý học viên" style="text;html=1;strokeColor=none;fillColor=none;align=center;verticalAlign=middle;whiteSpace=wrap;rounded=0;" vertex="1" parent="1">
          <mxGeometry x="2090" y="740" width="207.5" height="30" as="geometry" />
        </mxCell>
        <mxCell id="9GpPQzfEnyfRpi2PW7p6-104" value="&lt;div&gt;include&lt;/div&gt;" style="edgeStyle=orthogonalEdgeStyle;rounded=0;orthogonalLoop=1;jettySize=auto;html=1;entryX=1;entryY=0.5;entryDx=0;entryDy=0;startArrow=none;startFill=0;endArrow=classic;endFill=1;dashed=1;" edge="1" parent="1" source="9GpPQzfEnyfRpi2PW7p6-93" target="9GpPQzfEnyfRpi2PW7p6-100">
          <mxGeometry relative="1" as="geometry" />
        </mxCell>
        <mxCell id="9GpPQzfEnyfRpi2PW7p6-105" value="include" style="edgeStyle=orthogonalEdgeStyle;rounded=0;orthogonalLoop=1;jettySize=auto;html=1;entryX=0.5;entryY=0;entryDx=0;entryDy=0;startArrow=none;startFill=0;endArrow=classic;endFill=1;dashed=1;" edge="1" parent="1" source="9GpPQzfEnyfRpi2PW7p6-93" target="9GpPQzfEnyfRpi2PW7p6-96">
          <mxGeometry relative="1" as="geometry" />
        </mxCell>
        <mxCell id="9GpPQzfEnyfRpi2PW7p6-106" value="include" style="edgeStyle=orthogonalEdgeStyle;rounded=0;orthogonalLoop=1;jettySize=auto;html=1;startArrow=none;startFill=0;endArrow=classic;endFill=1;dashed=1;" edge="1" parent="1" source="9GpPQzfEnyfRpi2PW7p6-93" target="9GpPQzfEnyfRpi2PW7p6-97">
          <mxGeometry relative="1" as="geometry" />
        </mxCell>
        <mxCell id="9GpPQzfEnyfRpi2PW7p6-107" value="include" style="edgeStyle=orthogonalEdgeStyle;rounded=0;orthogonalLoop=1;jettySize=auto;html=1;entryX=0;entryY=0.5;entryDx=0;entryDy=0;startArrow=none;startFill=0;endArrow=classic;endFill=1;dashed=1;" edge="1" parent="1" source="9GpPQzfEnyfRpi2PW7p6-93" target="9GpPQzfEnyfRpi2PW7p6-94">
          <mxGeometry relative="1" as="geometry" />
        </mxCell>
        <mxCell id="9GpPQzfEnyfRpi2PW7p6-93" value="Quản lý học viên theo chuyên đề và khóa học" style="ellipse;whiteSpace=wrap;html=1;" vertex="1" parent="1">
          <mxGeometry x="2120" y="875" width="147.5" height="90" as="geometry" />
        </mxCell>
        <mxCell id="9GpPQzfEnyfRpi2PW7p6-108" value="include" style="edgeStyle=orthogonalEdgeStyle;rounded=0;orthogonalLoop=1;jettySize=auto;html=1;entryX=0.5;entryY=1;entryDx=0;entryDy=0;startArrow=none;startFill=0;endArrow=classic;endFill=1;dashed=1;" edge="1" parent="1" source="9GpPQzfEnyfRpi2PW7p6-94" target="9GpPQzfEnyfRpi2PW7p6-95">
          <mxGeometry relative="1" as="geometry" />
        </mxCell>
        <mxCell id="9GpPQzfEnyfRpi2PW7p6-94" value="người học" style="ellipse;whiteSpace=wrap;html=1;" vertex="1" parent="1">
          <mxGeometry x="2390" y="880" width="120" height="80" as="geometry" />
        </mxCell>
        <mxCell id="9GpPQzfEnyfRpi2PW7p6-95" value="thêm người học vào khóa học" style="ellipse;whiteSpace=wrap;html=1;" vertex="1" parent="1">
          <mxGeometry x="2390" y="750" width="120" height="80" as="geometry" />
        </mxCell>
        <mxCell id="9GpPQzfEnyfRpi2PW7p6-96" value="Khóa học" style="ellipse;whiteSpace=wrap;html=1;" vertex="1" parent="1">
          <mxGeometry x="2080" y="1020" width="120" height="80" as="geometry" />
        </mxCell>
        <mxCell id="9GpPQzfEnyfRpi2PW7p6-97" value="Chuyên đề" style="ellipse;whiteSpace=wrap;html=1;" vertex="1" parent="1">
          <mxGeometry x="2245" y="1020" width="120" height="80" as="geometry" />
        </mxCell>
        <mxCell id="9GpPQzfEnyfRpi2PW7p6-98" value="cập nhật điểm" style="ellipse;whiteSpace=wrap;html=1;" vertex="1" parent="1">
          <mxGeometry x="1870" y="1040" width="120" height="80" as="geometry" />
        </mxCell>
        <mxCell id="9GpPQzfEnyfRpi2PW7p6-99" value="xóa học viên khỏi khóa học" style="ellipse;whiteSpace=wrap;html=1;" vertex="1" parent="1">
          <mxGeometry x="1870" y="740" width="120" height="80" as="geometry" />
        </mxCell>
        <mxCell id="9GpPQzfEnyfRpi2PW7p6-101" value="&lt;div&gt;include&lt;/div&gt;" style="edgeStyle=orthogonalEdgeStyle;rounded=0;orthogonalLoop=1;jettySize=auto;html=1;entryX=0.5;entryY=1;entryDx=0;entryDy=0;startArrow=none;startFill=0;endArrow=classic;endFill=1;dashed=1;" edge="1" parent="1" source="9GpPQzfEnyfRpi2PW7p6-100" target="9GpPQzfEnyfRpi2PW7p6-99">
          <mxGeometry relative="1" as="geometry" />
        </mxCell>
        <mxCell id="9GpPQzfEnyfRpi2PW7p6-102" style="edgeStyle=orthogonalEdgeStyle;rounded=0;orthogonalLoop=1;jettySize=auto;html=1;startArrow=none;startFill=0;endArrow=classic;endFill=1;dashed=1;" edge="1" parent="1" source="9GpPQzfEnyfRpi2PW7p6-100" target="9GpPQzfEnyfRpi2PW7p6-98">
          <mxGeometry relative="1" as="geometry" />
        </mxCell>
        <mxCell id="9GpPQzfEnyfRpi2PW7p6-103" value="&lt;div&gt;include&lt;/div&gt;" style="edgeLabel;html=1;align=center;verticalAlign=middle;resizable=0;points=[];" vertex="1" connectable="0" parent="9GpPQzfEnyfRpi2PW7p6-102">
          <mxGeometry x="-0.4286" y="5" relative="1" as="geometry">
            <mxPoint as="offset" />
          </mxGeometry>
        </mxCell>
        <mxCell id="9GpPQzfEnyfRpi2PW7p6-100" value="học viên" style="ellipse;whiteSpace=wrap;html=1;" vertex="1" parent="1">
          <mxGeometry x="1870" y="880" width="120" height="80" as="geometry" />
        </mxCell>
        <mxCell id="9GpPQzfEnyfRpi2PW7p6-109" value="" style="rounded=0;whiteSpace=wrap;html=1;" vertex="1" parent="1">
          <mxGeometry x="1000" y="710" width="670" height="440" as="geometry" />
        </mxCell>
        <mxCell id="9GpPQzfEnyfRpi2PW7p6-110" value="Tổng hợp thống kê" style="text;html=1;strokeColor=none;fillColor=none;align=center;verticalAlign=middle;whiteSpace=wrap;rounded=0;" vertex="1" parent="1">
          <mxGeometry x="1270" y="730" width="125" height="30" as="geometry" />
        </mxCell>
        <mxCell id="9GpPQzfEnyfRpi2PW7p6-116" value="include" style="edgeStyle=orthogonalEdgeStyle;rounded=0;orthogonalLoop=1;jettySize=auto;html=1;dashed=1;startArrow=none;startFill=0;endArrow=classic;endFill=1;" edge="1" parent="1" source="9GpPQzfEnyfRpi2PW7p6-111" target="9GpPQzfEnyfRpi2PW7p6-112">
          <mxGeometry relative="1" as="geometry" />
        </mxCell>
        <mxCell id="9GpPQzfEnyfRpi2PW7p6-117" value="include" style="edgeStyle=orthogonalEdgeStyle;rounded=0;orthogonalLoop=1;jettySize=auto;html=1;dashed=1;startArrow=none;startFill=0;endArrow=classic;endFill=1;" edge="1" parent="1" source="9GpPQzfEnyfRpi2PW7p6-111" target="9GpPQzfEnyfRpi2PW7p6-114">
          <mxGeometry relative="1" as="geometry" />
        </mxCell>
        <mxCell id="9GpPQzfEnyfRpi2PW7p6-118" style="edgeStyle=orthogonalEdgeStyle;rounded=0;orthogonalLoop=1;jettySize=auto;html=1;entryX=1;entryY=0.5;entryDx=0;entryDy=0;dashed=1;startArrow=none;startFill=0;endArrow=classic;endFill=1;" edge="1" parent="1" source="9GpPQzfEnyfRpi2PW7p6-111" target="9GpPQzfEnyfRpi2PW7p6-113">
          <mxGeometry relative="1" as="geometry" />
        </mxCell>
        <mxCell id="9GpPQzfEnyfRpi2PW7p6-120" value="include" style="edgeLabel;html=1;align=center;verticalAlign=middle;resizable=0;points=[];" vertex="1" connectable="0" parent="9GpPQzfEnyfRpi2PW7p6-118">
          <mxGeometry x="-0.1538" y="-1" relative="1" as="geometry">
            <mxPoint as="offset" />
          </mxGeometry>
        </mxCell>
        <mxCell id="9GpPQzfEnyfRpi2PW7p6-119" value="include" style="edgeStyle=orthogonalEdgeStyle;rounded=0;orthogonalLoop=1;jettySize=auto;html=1;entryX=1;entryY=0.5;entryDx=0;entryDy=0;dashed=1;startArrow=none;startFill=0;endArrow=classic;endFill=1;" edge="1" parent="1" source="9GpPQzfEnyfRpi2PW7p6-111" target="9GpPQzfEnyfRpi2PW7p6-115">
          <mxGeometry relative="1" as="geometry" />
        </mxCell>
        <mxCell id="9GpPQzfEnyfRpi2PW7p6-111" value="Thống kê" style="ellipse;whiteSpace=wrap;html=1;" vertex="1" parent="1">
          <mxGeometry x="1260" y="930" width="120" height="80" as="geometry" />
        </mxCell>
        <mxCell id="9GpPQzfEnyfRpi2PW7p6-112" value="Bảng điểm" style="ellipse;whiteSpace=wrap;html=1;" vertex="1" parent="1">
          <mxGeometry x="1450" y="870" width="120" height="80" as="geometry" />
        </mxCell>
        <mxCell id="9GpPQzfEnyfRpi2PW7p6-113" value="Người học" style="ellipse;whiteSpace=wrap;html=1;" vertex="1" parent="1">
          <mxGeometry x="1080" y="1000" width="120" height="80" as="geometry" />
        </mxCell>
        <mxCell id="9GpPQzfEnyfRpi2PW7p6-114" value="Điểm chuyên đề" style="ellipse;whiteSpace=wrap;html=1;" vertex="1" parent="1">
          <mxGeometry x="1450" y="1010" width="120" height="80" as="geometry" />
        </mxCell>
        <mxCell id="9GpPQzfEnyfRpi2PW7p6-115" value="Doanh thu" style="ellipse;whiteSpace=wrap;html=1;" vertex="1" parent="1">
          <mxGeometry x="1080" y="850" width="120" height="80" as="geometry" />
        </mxCell>
        <mxCell id="9GpPQzfEnyfRpi2PW7p6-121" value="" style="rounded=0;whiteSpace=wrap;html=1;" vertex="1" parent="1">
          <mxGeometry x="230" y="710" width="640" height="350" as="geometry" />
        </mxCell>
        <mxCell id="9GpPQzfEnyfRpi2PW7p6-122" value="Quản lý chuyên đề" style="text;html=1;strokeColor=none;fillColor=none;align=center;verticalAlign=middle;whiteSpace=wrap;rounded=0;" vertex="1" parent="1">
          <mxGeometry x="540" y="720" width="150" height="30" as="geometry" />
        </mxCell>
        <mxCell id="9GpPQzfEnyfRpi2PW7p6-123" value="include" style="edgeStyle=orthogonalEdgeStyle;rounded=0;orthogonalLoop=1;jettySize=auto;html=1;dashed=1;startArrow=none;startFill=0;endArrow=classic;endFill=1;" edge="1" parent="1" source="9GpPQzfEnyfRpi2PW7p6-128" target="9GpPQzfEnyfRpi2PW7p6-129">
          <mxGeometry relative="1" as="geometry" />
        </mxCell>
        <mxCell id="9GpPQzfEnyfRpi2PW7p6-124" value="include" style="edgeStyle=orthogonalEdgeStyle;rounded=0;orthogonalLoop=1;jettySize=auto;html=1;dashed=1;startArrow=none;startFill=0;endArrow=classic;endFill=1;" edge="1" parent="1" source="9GpPQzfEnyfRpi2PW7p6-128" target="9GpPQzfEnyfRpi2PW7p6-131">
          <mxGeometry relative="1" as="geometry" />
        </mxCell>
        <mxCell id="9GpPQzfEnyfRpi2PW7p6-125" style="edgeStyle=orthogonalEdgeStyle;rounded=0;orthogonalLoop=1;jettySize=auto;html=1;entryX=1;entryY=0.5;entryDx=0;entryDy=0;dashed=1;startArrow=none;startFill=0;endArrow=classic;endFill=1;" edge="1" parent="1" source="9GpPQzfEnyfRpi2PW7p6-128" target="9GpPQzfEnyfRpi2PW7p6-130">
          <mxGeometry relative="1" as="geometry" />
        </mxCell>
        <mxCell id="9GpPQzfEnyfRpi2PW7p6-126" value="include" style="edgeLabel;html=1;align=center;verticalAlign=middle;resizable=0;points=[];" vertex="1" connectable="0" parent="9GpPQzfEnyfRpi2PW7p6-125">
          <mxGeometry x="-0.1538" y="-1" relative="1" as="geometry">
            <mxPoint as="offset" />
          </mxGeometry>
        </mxCell>
        <mxCell id="9GpPQzfEnyfRpi2PW7p6-127" value="include" style="edgeStyle=orthogonalEdgeStyle;rounded=0;orthogonalLoop=1;jettySize=auto;html=1;entryX=1;entryY=0.5;entryDx=0;entryDy=0;dashed=1;startArrow=none;startFill=0;endArrow=classic;endFill=1;" edge="1" parent="1" source="9GpPQzfEnyfRpi2PW7p6-128" target="9GpPQzfEnyfRpi2PW7p6-132">
          <mxGeometry relative="1" as="geometry" />
        </mxCell>
        <mxCell id="9GpPQzfEnyfRpi2PW7p6-128" value="Quản lý chuyên đề" style="ellipse;whiteSpace=wrap;html=1;" vertex="1" parent="1">
          <mxGeometry x="550" y="880" width="120" height="80" as="geometry" />
        </mxCell>
        <mxCell id="9GpPQzfEnyfRpi2PW7p6-129" value="liệt kê các chuyên đề" style="ellipse;whiteSpace=wrap;html=1;" vertex="1" parent="1">
          <mxGeometry x="740" y="820" width="120" height="80" as="geometry" />
        </mxCell>
        <mxCell id="9GpPQzfEnyfRpi2PW7p6-130" value="sửa" style="ellipse;whiteSpace=wrap;html=1;" vertex="1" parent="1">
          <mxGeometry x="370" y="950" width="120" height="80" as="geometry" />
        </mxCell>
        <mxCell id="9GpPQzfEnyfRpi2PW7p6-131" value="xóa" style="ellipse;whiteSpace=wrap;html=1;" vertex="1" parent="1">
          <mxGeometry x="250" y="880" width="120" height="80" as="geometry" />
        </mxCell>
        <mxCell id="9GpPQzfEnyfRpi2PW7p6-132" value="thêm" style="ellipse;whiteSpace=wrap;html=1;" vertex="1" parent="1">
          <mxGeometry x="370" y="800" width="120" height="80" as="geometry" />
        </mxCell>
        <mxCell id="9GpPQzfEnyfRpi2PW7p6-134" style="edgeStyle=orthogonalEdgeStyle;rounded=0;orthogonalLoop=1;jettySize=auto;html=1;entryX=0;entryY=0.5;entryDx=0;entryDy=0;startArrow=none;startFill=0;endArrow=none;endFill=0;" edge="1" parent="1" source="9GpPQzfEnyfRpi2PW7p6-133" target="9GpPQzfEnyfRpi2PW7p6-131">
          <mxGeometry relative="1" as="geometry" />
        </mxCell>
        <mxCell id="9GpPQzfEnyfRpi2PW7p6-133" value="Trưởng phòng" style="shape=umlActor;verticalLabelPosition=bottom;verticalAlign=top;html=1;outlineConnect=0;" vertex="1" parent="1">
          <mxGeometry x="140" y="890" width="30" height="60" as="geometry" />
        </mxCell>
        <mxCell id="9GpPQzfEnyfRpi2PW7p6-135" value="" style="whiteSpace=wrap;html=1;" vertex="1" parent="1">
          <mxGeometry x="240" y="1120" width="660" height="380" as="geometry" />
        </mxCell>
        <mxCell id="9GpPQzfEnyfRpi2PW7p6-136" value="Quản lý khóa học" style="text;html=1;strokeColor=none;fillColor=none;align=center;verticalAlign=middle;whiteSpace=wrap;rounded=0;" vertex="1" parent="1">
          <mxGeometry x="490" y="1139" width="130" height="30" as="geometry" />
        </mxCell>
        <mxCell id="9GpPQzfEnyfRpi2PW7p6-138" value="include" style="edgeStyle=orthogonalEdgeStyle;rounded=0;orthogonalLoop=1;jettySize=auto;html=1;dashed=1;startArrow=none;startFill=0;endArrow=classic;endFill=1;" edge="1" parent="1" source="9GpPQzfEnyfRpi2PW7p6-143" target="9GpPQzfEnyfRpi2PW7p6-144">
          <mxGeometry relative="1" as="geometry" />
        </mxCell>
        <mxCell id="9GpPQzfEnyfRpi2PW7p6-139" value="include" style="edgeStyle=orthogonalEdgeStyle;rounded=0;orthogonalLoop=1;jettySize=auto;html=1;dashed=1;startArrow=none;startFill=0;endArrow=classic;endFill=1;" edge="1" parent="1" source="9GpPQzfEnyfRpi2PW7p6-143" target="9GpPQzfEnyfRpi2PW7p6-146">
          <mxGeometry relative="1" as="geometry" />
        </mxCell>
        <mxCell id="9GpPQzfEnyfRpi2PW7p6-140" style="edgeStyle=orthogonalEdgeStyle;rounded=0;orthogonalLoop=1;jettySize=auto;html=1;entryX=1;entryY=0.5;entryDx=0;entryDy=0;dashed=1;startArrow=none;startFill=0;endArrow=classic;endFill=1;" edge="1" parent="1" source="9GpPQzfEnyfRpi2PW7p6-143" target="9GpPQzfEnyfRpi2PW7p6-145">
          <mxGeometry relative="1" as="geometry" />
        </mxCell>
        <mxCell id="9GpPQzfEnyfRpi2PW7p6-141" value="include" style="edgeLabel;html=1;align=center;verticalAlign=middle;resizable=0;points=[];" vertex="1" connectable="0" parent="9GpPQzfEnyfRpi2PW7p6-140">
          <mxGeometry x="-0.1538" y="-1" relative="1" as="geometry">
            <mxPoint as="offset" />
          </mxGeometry>
        </mxCell>
        <mxCell id="9GpPQzfEnyfRpi2PW7p6-142" value="include" style="edgeStyle=orthogonalEdgeStyle;rounded=0;orthogonalLoop=1;jettySize=auto;html=1;entryX=1;entryY=0.5;entryDx=0;entryDy=0;dashed=1;startArrow=none;startFill=0;endArrow=classic;endFill=1;" edge="1" parent="1" source="9GpPQzfEnyfRpi2PW7p6-143" target="9GpPQzfEnyfRpi2PW7p6-147">
          <mxGeometry relative="1" as="geometry" />
        </mxCell>
        <mxCell id="9GpPQzfEnyfRpi2PW7p6-143" value="Quản lý khóa học" style="ellipse;whiteSpace=wrap;html=1;" vertex="1" parent="1">
          <mxGeometry x="570" y="1249" width="120" height="80" as="geometry" />
        </mxCell>
        <mxCell id="9GpPQzfEnyfRpi2PW7p6-144" value="chi tiết" style="ellipse;whiteSpace=wrap;html=1;" vertex="1" parent="1">
          <mxGeometry x="760" y="1189" width="120" height="80" as="geometry" />
        </mxCell>
        <mxCell id="9GpPQzfEnyfRpi2PW7p6-145" value="sửa" style="ellipse;whiteSpace=wrap;html=1;" vertex="1" parent="1">
          <mxGeometry x="390" y="1319" width="120" height="80" as="geometry" />
        </mxCell>
        <mxCell id="9GpPQzfEnyfRpi2PW7p6-146" value="xóa" style="ellipse;whiteSpace=wrap;html=1;" vertex="1" parent="1">
          <mxGeometry x="270" y="1249" width="120" height="80" as="geometry" />
        </mxCell>
        <mxCell id="9GpPQzfEnyfRpi2PW7p6-147" value="thêm" style="ellipse;whiteSpace=wrap;html=1;" vertex="1" parent="1">
          <mxGeometry x="390" y="1169" width="120" height="80" as="geometry" />
        </mxCell>
        <mxCell id="9GpPQzfEnyfRpi2PW7p6-148" style="edgeStyle=orthogonalEdgeStyle;rounded=0;orthogonalLoop=1;jettySize=auto;html=1;entryX=0;entryY=0.5;entryDx=0;entryDy=0;startArrow=none;startFill=0;endArrow=none;endFill=0;" edge="1" parent="1" source="9GpPQzfEnyfRpi2PW7p6-149" target="9GpPQzfEnyfRpi2PW7p6-146">
          <mxGeometry relative="1" as="geometry" />
        </mxCell>
        <mxCell id="9GpPQzfEnyfRpi2PW7p6-149" value="Trưởng phòng" style="shape=umlActor;verticalLabelPosition=bottom;verticalAlign=top;html=1;outlineConnect=0;" vertex="1" parent="1">
          <mxGeometry x="160" y="1259" width="30" height="60" as="geometry" />
        </mxCell>
      </root>
    </mxGraphModel>
  </diagram>
</mxfile>
